<?xml version="1.0" encoding="UTF-8" standalone="no"?>
<!DOCTYPE svg PUBLIC "-//W3C//DTD SVG 1.1//EN"
 "http://www.w3.org/Graphics/SVG/1.1/DTD/svg11.dtd">
<!-- Generated by graphviz version 2.38.0 (20140413.2041)
 -->
<!-- Title: pylint&#45;external&#45;imports Pages: 1 -->
<svg width="257pt" height="152pt"
 viewBox="0.00 0.00 257.00 152.00" xmlns="http://www.w3.org/2000/svg" xmlns:xlink="http://www.w3.org/1999/xlink">
<g id="graph0" class="graph" transform="scale(1 1) rotate(0) translate(4 148)">
<title>pylint&#45;external&#45;imports</title>
<g id="a_graph0"><a xlink:href=".">
<polygon fill="white" stroke="none" points="-4,4 -4,-148 253,-148 253,4 -4,4"/>
</a>
</g>
<!-- pygments -->
<g id="node1" class="node"><title>pygments</title>
<polygon fill="none" stroke="black" points="219,-144 148,-144 148,-108 219,-108 219,-144"/>
<text text-anchor="middle" x="183.5" y="-122.3" font-family="Times New Roman,serif" font-size="14.00">pygments</text>
</g>
<!-- dklint.dklint -->
<g id="node2" class="node"><title>dklint.dklint</title>
<polygon fill="none" stroke="black" points="82,-90 0,-90 0,-54 82,-54 82,-90"/>
<text text-anchor="middle" x="41" y="-68.3" font-family="Times New Roman,serif" font-size="14.00">dklint.dklint</text>
</g>
<!-- dklint.dklint&#45;&gt;pygments -->
<g id="edge1" class="edge"><title>dklint.dklint&#45;&gt;pygments</title>
<path fill="none" stroke="black" d="M82.2617,-87.4742C99.7768,-94.206 120.354,-102.115 138.292,-109.009"/>
<polygon fill="black" stroke="black" points="137.36,-112.4 147.95,-112.721 139.871,-105.866 137.36,-112.4"/>
</g>
<!-- pygments.formatters -->
<g id="node3" class="node"><title>pygments.formatters</title>
<polygon fill="none" stroke="black" points="249,-90 118,-90 118,-54 249,-54 249,-90"/>
<text text-anchor="middle" x="183.5" y="-68.3" font-family="Times New Roman,serif" font-size="14.00">pygments.formatters</text>
</g>
<!-- dklint.dklint&#45;&gt;pygments.formatters -->
<g id="edge2" class="edge"><title>dklint.dklint&#45;&gt;pygments.formatters</title>
<path fill="none" stroke="black" d="M82.2617,-72C90.2464,-72 98.8674,-72 107.585,-72"/>
<polygon fill="black" stroke="black" points="107.83,-75.5001 117.83,-72 107.83,-68.5001 107.83,-75.5001"/>
</g>
<!-- pygments.lexers -->
<g id="node4" class="node"><title>pygments.lexers</title>
<polygon fill="none" stroke="black" points="237,-36 130,-36 130,-0 237,-0 237,-36"/>
<text text-anchor="middle" x="183.5" y="-14.3" font-family="Times New Roman,serif" font-size="14.00">pygments.lexers</text>
</g>
<!-- dklint.dklint&#45;&gt;pygments.lexers -->
<g id="edge3" class="edge"><title>dklint.dklint&#45;&gt;pygments.lexers</title>
<path fill="none" stroke="black" d="M82.2617,-56.5258C95.8979,-51.2848 111.39,-45.3306 126.048,-39.697"/>
<polygon fill="black" stroke="black" points="127.453,-42.9065 135.532,-36.0519 124.942,-36.3725 127.453,-42.9065"/>
</g>
</g>
</svg>
