<?xml version="1.0" encoding="UTF-8" standalone="no"?>
<!DOCTYPE svg PUBLIC "-//W3C//DTD SVG 1.1//EN"
 "http://www.w3.org/Graphics/SVG/1.1/DTD/svg11.dtd">
<!-- Generated by graphviz version 2.38.0 (20140413.2041)
 -->
<!-- Title: pylint&#45;import&#45;graph Pages: 1 -->
<svg width="257pt" height="206pt"
 viewBox="0.00 0.00 257.00 206.00" xmlns="http://www.w3.org/2000/svg" xmlns:xlink="http://www.w3.org/1999/xlink">
<g id="graph0" class="graph" transform="scale(1 1) rotate(0) translate(4 202)">
<title>pylint&#45;import&#45;graph</title>
<g id="a_graph0"><a xlink:href=".">
<polygon fill="white" stroke="none" points="-4,4 -4,-202 253,-202 253,4 -4,4"/>
</a>
</g>
<!-- dklint.pfind -->
<g id="node1" class="node"><title>dklint.pfind</title>
<polygon fill="none" stroke="black" points="223.5,-198 143.5,-198 143.5,-162 223.5,-162 223.5,-198"/>
<text text-anchor="middle" x="183.5" y="-176.3" font-family="Times New Roman,serif" font-size="14.00">dklint.pfind</text>
</g>
<!-- dklint.dklint -->
<g id="node2" class="node"><title>dklint.dklint</title>
<polygon fill="none" stroke="black" points="82,-117 0,-117 0,-81 82,-81 82,-117"/>
<text text-anchor="middle" x="41" y="-95.3" font-family="Times New Roman,serif" font-size="14.00">dklint.dklint</text>
</g>
<!-- dklint.dklint&#45;&gt;dklint.pfind -->
<g id="edge1" class="edge"><title>dklint.dklint&#45;&gt;dklint.pfind</title>
<path fill="none" stroke="black" d="M64.742,-117.178C79.4035,-128.379 99.1818,-142.545 118,-153 123.099,-155.833 128.555,-158.553 134.056,-161.104"/>
<polygon fill="black" stroke="black" points="132.742,-164.349 143.3,-165.225 135.592,-157.956 132.742,-164.349"/>
</g>
<!-- pygments -->
<g id="node3" class="node"><title>pygments</title>
<polygon fill="none" stroke="black" points="219,-144 148,-144 148,-108 219,-108 219,-144"/>
<text text-anchor="middle" x="183.5" y="-122.3" font-family="Times New Roman,serif" font-size="14.00">pygments</text>
</g>
<!-- dklint.dklint&#45;&gt;pygments -->
<g id="edge2" class="edge"><title>dklint.dklint&#45;&gt;pygments</title>
<path fill="none" stroke="black" d="M82.2617,-106.737C99.6958,-110.087 120.163,-114.021 138.043,-117.457"/>
<polygon fill="black" stroke="black" points="137.469,-120.91 147.95,-119.36 138.79,-114.036 137.469,-120.91"/>
</g>
<!-- pygments.formatters -->
<g id="node4" class="node"><title>pygments.formatters</title>
<polygon fill="none" stroke="black" points="249,-90 118,-90 118,-54 249,-54 249,-90"/>
<text text-anchor="middle" x="183.5" y="-68.3" font-family="Times New Roman,serif" font-size="14.00">pygments.formatters</text>
</g>
<!-- dklint.dklint&#45;&gt;pygments.formatters -->
<g id="edge3" class="edge"><title>dklint.dklint&#45;&gt;pygments.formatters</title>
<path fill="none" stroke="black" d="M82.2617,-91.2629C90.3332,-89.7118 99.0549,-88.0357 107.869,-86.3419"/>
<polygon fill="black" stroke="black" points="108.67,-89.7521 117.83,-84.4277 107.349,-82.8779 108.67,-89.7521"/>
</g>
<!-- pygments.lexers -->
<g id="node5" class="node"><title>pygments.lexers</title>
<polygon fill="none" stroke="black" points="237,-36 130,-36 130,-0 237,-0 237,-36"/>
<text text-anchor="middle" x="183.5" y="-14.3" font-family="Times New Roman,serif" font-size="14.00">pygments.lexers</text>
</g>
<!-- dklint.dklint&#45;&gt;pygments.lexers -->
<g id="edge4" class="edge"><title>dklint.dklint&#45;&gt;pygments.lexers</title>
<path fill="none" stroke="black" d="M64.742,-80.8215C79.4035,-69.6215 99.1818,-55.4546 118,-45 120.812,-43.4377 123.733,-41.9095 126.711,-40.4252"/>
<polygon fill="black" stroke="black" points="128.237,-43.5749 135.759,-36.1132 125.226,-37.2558 128.237,-43.5749"/>
</g>
</g>
</svg>
